<svg width="99" height="99" viewBox="0 0 99 99" fill="none" xmlns="http://www.w3.org/2000/svg">
<path d="M49.4973 10.9985V43.0118H43.6987L49.4973 10.9985Z" fill="#8695C9"/>
<path d="M49.499 48.6611L43.7001 43.0114L49.499 43.0114L49.499 48.6611Z" fill="#8695C9"/>
<path d="M49.4983 10.9985V43.0118H55.2969L49.4983 10.9985Z" fill="#1BC2E6"/>
<path d="M49.499 48.6611L55.2979 43.0114L49.499 43.0114L49.499 48.6611Z" fill="#1BC2E6"/>
<path d="M49.4387 87.9971V55.9838H43.6401L49.4387 87.9971Z" fill="#1BC2E6"/>
<path d="M49.438 50.334L43.6391 55.9837L49.438 55.9837L49.438 50.334Z" fill="#1BC2E6"/>
<path d="M49.4397 87.9971V55.9838H55.2383L49.4397 87.9971Z" fill="#8695C9"/>
<path d="M49.4375 50.334L55.2364 55.9837L49.4375 55.9837L49.4375 50.334Z" fill="#8695C9"/>
<path d="M87.9971 49.4387L55.9838 49.4387L55.9838 43.6401L87.9971 49.4387Z" fill="#8695C9"/>
<path d="M50.334 49.438L55.9837 43.6391L55.9837 49.438L50.334 49.438Z" fill="#8695C9"/>
<path d="M87.9971 49.4397L55.9838 49.4397L55.9838 55.2383L87.9971 49.4397Z" fill="#1BC2E6"/>
<path d="M50.334 49.4375L55.9837 55.2364L55.9837 49.4375L50.334 49.4375Z" fill="#1BC2E6"/>
<path d="M10.9985 49.4387L43.0118 49.4387L43.0118 43.6401L10.9985 49.4387Z" fill="#1BC2E6"/>
<path d="M48.6611 49.438L43.0114 43.6391L43.0114 49.438L48.6611 49.438Z" fill="#1BC2E6"/>
<path d="M10.9985 49.4402L43.0118 49.4402L43.0118 55.2388L10.9985 49.4402Z" fill="#8695C9"/>
<path d="M48.6611 49.438L43.0114 55.2369L43.0114 49.438L48.6611 49.438Z" fill="#8695C9"/>
<path fill-rule="evenodd" clip-rule="evenodd" d="M49.4995 93.4991C73.7998 93.4991 93.4991 73.7998 93.4991 49.4995C93.4991 25.1992 73.7998 5.49995 49.4995 5.49995C25.1992 5.49995 5.49995 25.1992 5.49995 49.4995C5.49995 73.7998 25.1992 93.4991 49.4995 93.4991ZM49.4995 98.999C76.8373 98.999 98.999 76.8373 98.999 49.4995C98.999 22.1617 76.8373 0 49.4995 0C22.1617 0 0 22.1617 0 49.4995C0 76.8373 22.1617 98.999 49.4995 98.999Z" fill="#1BC2E6"/>
</svg>
