<svg width="493" height="119" viewBox="0 0 493 119" fill="none" xmlns="http://www.w3.org/2000/svg">
<path d="M49.4973 19.9985V52.0118H43.6987L49.4973 19.9985Z" fill="#8695C9"/>
<path d="M49.499 57.6611L43.7001 52.0114L49.499 52.0114L49.499 57.6611Z" fill="#8695C9"/>
<path d="M49.4983 19.9985V52.0118H55.2969L49.4983 19.9985Z" fill="white"/>
<path d="M49.499 57.6611L55.2979 52.0114L49.499 52.0114L49.499 57.6611Z" fill="white"/>
<path d="M49.4387 96.9971V64.9838H43.6401L49.4387 96.9971Z" fill="white"/>
<path d="M49.438 59.334L43.6391 64.9837L49.438 64.9837L49.438 59.334Z" fill="white"/>
<path d="M49.4397 96.9971V64.9838H55.2383L49.4397 96.9971Z" fill="#8695C9"/>
<path d="M49.4375 59.334L55.2364 64.9837L49.4375 64.9837L49.4375 59.334Z" fill="#8695C9"/>
<path d="M87.9971 58.4387L55.9838 58.4387L55.9838 52.6401L87.9971 58.4387Z" fill="#8695C9"/>
<path d="M50.334 58.438L55.9837 52.6391L55.9837 58.438L50.334 58.438Z" fill="#8695C9"/>
<path d="M87.9971 58.4397L55.9838 58.4397L55.9838 64.2383L87.9971 58.4397Z" fill="white"/>
<path d="M50.334 58.4375L55.9837 64.2364L55.9837 58.4375L50.334 58.4375Z" fill="white"/>
<path d="M10.9985 58.4387L43.0118 58.4387L43.0118 52.6401L10.9985 58.4387Z" fill="white"/>
<path d="M48.6611 58.438L43.0114 52.6391L43.0114 58.438L48.6611 58.438Z" fill="white"/>
<path d="M10.9985 58.4402L43.0118 58.4402L43.0118 64.2388L10.9985 58.4402Z" fill="#8695C9"/>
<path d="M48.6611 58.438L43.0114 64.2369L43.0114 58.438L48.6611 58.438Z" fill="#8695C9"/>
<path fill-rule="evenodd" clip-rule="evenodd" d="M49.4995 102.499C73.7998 102.499 93.4991 82.7998 93.4991 58.4995C93.4991 34.1992 73.7998 14.4999 49.4995 14.4999C25.1992 14.4999 5.49995 34.1992 5.49995 58.4995C5.49995 82.7998 25.1992 102.499 49.4995 102.499ZM49.4995 107.999C76.8373 107.999 98.999 85.8373 98.999 58.4995C98.999 31.1617 76.8373 9 49.4995 9C22.1617 9 0 31.1617 0 58.4995C0 85.8373 22.1617 107.999 49.4995 107.999Z" fill="white"/>
<path d="M178.625 22.9375H201.688V31H194.938V85.9375H201.688V94H178.625V85.9375H185.75V60.3906H144.641V85.9375H151.766V94H128.703V85.9375H135.453V31H128.703V22.9375H151.766V31H144.641V52.5156H185.75V31H178.625V22.9375ZM257.188 85.9375H263.094L257.469 69.8125H230.141L224.656 85.9375H231.969V94H208.906V85.9375H215.094L237.219 22.9375H251.047L273.125 85.9375H280.25V94H257.188V85.9375ZM232.812 62.0312H254.75L243.688 30.25L232.812 62.0312ZM323.844 42.25C323.844 39.5 323.344 37.4375 322.344 36.0625C321.344 34.6875 320.234 33.6406 319.016 32.9219C317.828 32.1719 316.516 31.6094 315.078 31.2344C313.641 30.8281 312.203 30.625 310.766 30.625C308.391 30.625 306.312 30.9062 304.531 31.4688C302.75 32 301.266 32.7344 300.078 33.6719C298.922 34.6094 298.047 35.7031 297.453 36.9531C296.859 38.2031 296.562 39.5156 296.562 40.8906C296.562 42.9531 296.922 44.625 297.641 45.9062C298.391 47.1562 299.328 48.1719 300.453 48.9531C301.578 49.7031 302.812 50.2969 304.156 50.7344C305.531 51.1719 306.844 51.6094 308.094 52.0469L317.562 55.1406C320.406 56.0469 322.906 57.0781 325.062 58.2344C327.25 59.3906 329.078 60.7656 330.547 62.3594C332.016 63.9219 333.125 65.7344 333.875 67.7969C334.656 69.8594 335.047 72.25 335.047 74.9688C335.047 77.9062 334.438 80.625 333.219 83.125C332.031 85.625 330.359 87.7969 328.203 89.6406C326.047 91.4844 323.469 92.9375 320.469 94C317.5 95.0312 314.234 95.5469 310.672 95.5469C307.016 95.5469 303.891 95.125 301.297 94.2812C298.703 93.4688 296.516 92.375 294.734 91C292.984 89.5938 291.578 88 290.516 86.2188C289.453 84.4375 288.625 82.6094 288.031 80.7344H284.469V72.6719H296.281C296.281 76.1406 296.641 78.5938 297.359 80.0312C298.109 81.4688 299.141 82.6719 300.453 83.6406C301.766 84.5781 303.328 85.2969 305.141 85.7969C306.953 86.2656 308.953 86.5 311.141 86.5C313.266 86.5 315.172 86.25 316.859 85.75C318.578 85.25 320.031 84.5312 321.219 83.5938C322.438 82.625 323.359 81.4688 323.984 80.125C324.641 78.75 324.969 77.2031 324.969 75.4844C324.969 73.5781 324.562 71.9688 323.75 70.6562C322.969 69.3125 321.953 68.1719 320.703 67.2344C319.453 66.2969 318.078 65.5312 316.578 64.9375C315.109 64.3438 313.688 63.8281 312.312 63.3906L302.047 60.4844C299.797 59.7969 297.734 58.9219 295.859 57.8594C294.016 56.7969 292.422 55.5 291.078 53.9688C289.766 52.4375 288.75 50.6562 288.031 48.625C287.312 46.5625 286.953 44.1875 286.953 41.5C286.953 38.7812 287.484 36.2344 288.547 33.8594C289.609 31.4844 291.172 29.4062 293.234 27.625C295.297 25.8438 297.812 24.4531 300.781 23.4531C303.781 22.4219 307.203 21.9062 311.047 21.9062C313.578 21.9062 315.906 22.2031 318.031 22.7969C320.188 23.3906 322.125 24.2344 323.844 25.3281C325.594 26.3906 327.125 27.6875 328.438 29.2188C329.781 30.7188 330.906 32.375 331.812 34.1875H335.328V42.25H323.844ZM394.062 22.9375H417.125V31H410.375V85.9375H417.125V94H394.062V85.9375H401.188V60.3906H360.078V85.9375H367.203V94H344.141V85.9375H350.891V31H344.141V22.9375H367.203V31H360.078V52.5156H401.188V31H394.062V22.9375ZM430.578 22.9375H460.156C463.312 22.9375 466.219 23.3594 468.875 24.2031C471.562 25.0156 473.875 26.2344 475.812 27.8594C477.781 29.4531 479.312 31.4531 480.406 33.8594C481.5 36.2656 482.047 39.0312 482.047 42.1562C482.047 43.9375 481.719 45.7031 481.062 47.4531C480.438 49.1719 479.547 50.7812 478.391 52.2812C477.266 53.75 475.922 55.0625 474.359 56.2188C472.797 57.375 471.094 58.2656 469.25 58.8906C470.031 59.2344 470.812 59.7344 471.594 60.3906C472.406 61.0156 473.156 61.7969 473.844 62.7344C474.562 63.6406 475.203 64.6875 475.766 65.875C476.359 67.0312 476.828 68.2812 477.172 69.625L481.109 85.0938H487.25L487.344 94H473.516L468.219 72.3906C467.25 68.5156 465.766 65.6719 463.766 63.8594C461.797 62.0156 459.094 61.0938 455.656 61.0938H446.516V85.9375H453.641V94H430.578V85.9375H437.328V31.0469H430.578V22.9375ZM446.516 31.0469V53.4062H460.156C461.938 53.4062 463.562 53.1719 465.031 52.7031C466.531 52.2344 467.812 51.5312 468.875 50.5938C469.969 49.6562 470.812 48.5 471.406 47.125C472.031 45.7188 472.344 44.0938 472.344 42.25C472.344 38.7188 471.281 35.9688 469.156 34C467.031 32.0312 463.656 31.0469 459.031 31.0469H446.516Z" fill="white"/>
</svg>
